# xmcd
#
# Track frame offsets: 
#        150
#        17555
#        31768
#        51674
#        69243
#        82941
#        99213
#        118037
#        132040
#        149947
#        166395
#
# Disc length: 2491 seconds
#
# Revision: 2
# Processed by: cddbd v1.5.2PL0 Copyright (c) Steve Scherf et al.
# Submitted via: ExactAudioCopyFreeDBPlugin 1.0
#
DISCID=8e09b90b
DTITLE=Stoney LaRue - The Red Dirt Album
DYEAR=2005
DGENRE=Country
TTITLE0=Down In Flames
TTITLE1=Closer To You
TTITLE2=Idabel Blues
TTITLE3=Downtown
TTITLE4=Solid Gone
TTITLE5=Walk Away
TTITLE6=Texas Moon
TTITLE7=One Chord Song
TTITLE8=Bluebird Wine
TTITLE9=Let Me Hold You
TTITLE10=Forever Young
EXTD=
EXTT0=
EXTT1=
EXTT2=
EXTT3=
EXTT4=
EXTT5=
EXTT6=
EXTT7=
EXTT8=
EXTT9=
EXTT10=
PLAYORDER=
